<?xml version="1.0" standalone="no"?>
<!DOCTYPE svg PUBLIC "-//W3C//DTD SVG 20010904//EN"
 "http://www.w3.org/TR/2001/REC-SVG-20010904/DTD/svg10.dtd">
<svg version="1.0" xmlns="http://www.w3.org/2000/svg"
 width="300.000000pt" height="301.000000pt" viewBox="0 0 300.000000 301.000000"
 preserveAspectRatio="xMidYMid meet">
<metadata>
Created by potrace 1.10, written by Peter Selinger 2001-2011
</metadata>
<g transform="translate(0.000000,301.000000) scale(0.100000,-0.100000)"
fill="#000000" stroke="none">
<path d="M1322 2882 c-34 -34 -48 -40 -128 -56 -168 -33 -339 -105 -500 -211
-97 -65 -267 -238 -342 -349 -91 -134 -161 -304 -192 -468 -12 -61 -16 -68
-41 -73 -15 -4 -39 -18 -53 -32 -26 -25 -26 -28 -26 -173 0 -142 1 -148 25
-174 25 -27 51 -34 57 -15 2 6 23 9 51 7 l47 -3 -14 -26 c-7 -15 -13 -37 -12
-50 1 -13 -2 -29 -7 -36 -5 -7 -7 -18 -4 -25 3 -8 6 -4 7 7 0 13 6 5 16 -20 8
-22 12 -51 9 -63 -3 -13 -2 -21 3 -18 4 2 13 -8 19 -25 6 -16 7 -29 3 -29 -5
0 -11 8 -13 17 -4 17 -5 17 -6 1 0 -10 7 -22 18 -27 10 -6 21 -18 25 -28 6
-17 5 -17 -8 0 -7 9 -15 17 -18 17 -10 0 70 -156 117 -231 46 -73 231 -271
290 -310 24 -17 23 -14 -7 14 -67 61 -28 47 70 -25 90 -67 191 -124 272 -156
54 -21 153 -54 172 -57 101 -20 143 -21 164 -4 7 6 15 -4 22 -29 9 -29 21 -43
49 -57 34 -17 36 -19 15 -23 -14 -2 -37 7 -58 23 -18 14 -34 22 -34 16 0 -5
12 -19 26 -30 24 -19 40 -21 150 -21 l124 0 38 35 c31 27 54 37 115 50 174 36
374 125 512 228 261 194 480 534 513 792 l7 60 39 6 c26 4 48 16 64 34 23 27
23 32 20 177 l-3 150 -28 24 c-16 14 -41 24 -58 24 -23 0 -29 4 -29 23 0 12
-14 74 -30 137 -74 282 -277 568 -524 739 -146 101 -348 186 -504 213 -53 9
-73 17 -78 30 -3 10 -17 27 -31 38 -23 18 -40 20 -149 20 l-124 0 -38 -38z
m274 -36 c3 -8 6 -123 7 -255 l2 -239 -110 -4 c-60 -2 -113 -1 -118 2 -4 4 -9
115 -12 248 -4 220 -3 242 13 251 9 6 61 11 115 11 76 0 99 -3 103 -14z m-296
-135 l0 -70 -57 -11 c-131 -25 -315 -104 -438 -188 -202 -137 -408 -449 -440
-666 l-7 -44 -72 -4 c-39 -2 -72 -3 -74 -2 -5 2 29 150 49 213 28 88 99 229
156 308 59 83 196 227 268 283 76 59 234 144 333 180 65 23 229 65 275 69 4 1
7 -30 7 -68z m508 39 c448 -115 809 -482 912 -925 11 -47 20 -89 20 -93 0 -7
-130 -4 -137 2 -2 1 -14 41 -28 89 -70 241 -247 484 -468 641 -103 72 -254
136 -409 170 -27 6 -28 9 -28 71 l0 65 31 0 c17 0 65 -9 107 -20z m-478 -152
c0 -16 -5 -19 -22 -14 -13 3 -27 6 -32 6 -4 0 2 9 15 19 27 22 39 19 39 -11z
m334 16 c22 -8 20 -21 -4 -34 -18 -9 -20 -8 -20 15 0 27 1 28 24 19z m-362
-109 c3 -53 2 -56 -22 -61 -61 -12 -190 -59 -250 -90 -36 -19 -111 -73 -167
-119 -57 -47 -103 -83 -103 -79 0 11 -29 -17 -62 -60 -21 -26 -24 -34 -10 -22
30 26 28 13 -8 -39 -37 -53 -116 -210 -125 -247 -5 -21 -20 -34 -60 -53 -49
-23 -75 -30 -75 -22 0 2 15 51 33 109 73 230 230 446 412 565 124 82 333 170
412 172 19 1 22 -5 25 -54z m552 5 c204 -70 415 -251 540 -461 72 -121 144
-306 129 -331 -14 -24 -113 5 -113 33 0 24 -108 232 -156 300 -29 42 -96 117
-149 167 -81 78 -111 99 -198 141 -56 27 -132 57 -169 66 l-68 18 0 57 0 58
63 -14 c34 -7 89 -22 121 -34z m-521 -121 c9 -71 17 -74 183 -71 91 2 124 21
124 71 0 39 6 41 48 21 20 -10 51 -20 67 -23 66 -11 174 -63 255 -122 50 -38
147 -136 203 -207 34 -42 191 -338 183 -345 -1 -2 -32 10 -67 25 -35 16 -122
41 -193 56 -85 17 -145 36 -180 55 -66 37 -237 122 -256 127 -8 2 -41 13 -73
24 -74 26 -125 32 -267 32 -180 0 -351 -47 -550 -148 -84 -43 -149 -80 -195
-110 -42 -27 -35 6 27 126 75 145 119 202 238 307 115 103 243 170 377 198 18
3 35 11 38 16 14 22 33 6 38 -32z m223 -408 c96 -20 205 -66 352 -150 76 -42
104 -52 221 -75 138 -28 200 -52 284 -113 62 -46 107 -134 107 -213 0 -23 9
-45 25 -64 14 -16 25 -26 25 -22 0 4 4 5 10 1 5 -3 -2 -22 -15 -42 -14 -20
-25 -40 -25 -45 0 -5 -8 -7 -18 -4 -14 5 -22 -7 -41 -57 -32 -86 -115 -242
-161 -303 -90 -120 -243 -246 -386 -317 -40 -20 -240 -87 -260 -87 -2 0 -4 29
-4 65 0 62 1 65 24 65 42 0 158 40 235 81 164 88 307 235 391 402 28 55 50
107 50 118 0 16 7 19 44 19 53 0 76 8 76 25 0 14 -58 41 -79 37 -25 -6 -60
-56 -106 -150 -75 -154 -134 -229 -264 -334 -85 -68 -177 -116 -282 -147 -41
-12 -82 -26 -91 -32 -26 -13 -28 -12 -28 21 0 45 -25 86 -57 96 -15 4 -68 7
-118 6 -83 -2 -92 -4 -112 -28 -14 -15 -23 -38 -23 -59 0 -42 -10 -49 -46 -30
-16 8 -38 15 -50 15 -56 0 -260 102 -326 164 -27 24 -48 42 -48 41 0 -6 -94
99 -128 142 -17 23 -32 45 -32 49 0 4 -6 15 -14 23 -8 9 -33 53 -56 98 -39 76
-82 124 -94 104 -3 -4 -22 -5 -43 -1 -26 4 -45 1 -61 -8 -12 -8 -24 -13 -25
-11 -1 2 -10 19 -21 38 l-18 33 27 22 c29 23 33 42 34 158 1 61 4 70 34 102
35 38 130 104 247 174 307 182 589 246 846 193z m-1366 -273 c0 -5 -9 -8 -20
-8 -23 0 -26 10 -8 28 9 9 14 9 20 -1 4 -6 8 -15 8 -19z m2386 -7 c-4 -6 -13
-11 -20 -11 -14 0 -36 -41 -36 -65 0 -24 -14 -18 -48 20 -36 39 -41 57 -14 54
53 -5 81 2 87 22 6 19 9 20 22 6 9 -8 12 -20 9 -26z m-2170 18 c3 -6 2 -15 -2
-19 -12 -12 -38 5 -30 19 9 14 23 14 32 0z m94 -16 c-1 -11 -47 -63 -56 -63
-10 0 -33 33 -34 47 0 6 17 14 38 16 20 2 40 4 45 5 4 1 7 -1 7 -5z m2331 -43
c17 -10 19 -22 19 -144 0 -101 -3 -135 -13 -139 -7 -3 -72 -2 -144 0 l-131 6
-6 45 c-3 25 -6 87 -6 138 l0 93 118 4 c64 1 123 4 130 5 7 1 22 -3 33 -8z
m-2431 -139 l0 -138 -61 -7 c-34 -3 -95 -6 -135 -6 -101 0 -104 4 -104 145 0
62 3 120 6 129 5 14 28 16 150 16 l144 0 0 -139z m-334 -63 c5 -59 21 -108 37
-108 6 0 7 -3 4 -7 -9 -8 -48 27 -42 38 3 4 1 10 -5 14 -5 3 -10 34 -10 67 0
73 11 71 16 -4z m2730 -133 c-16 -16 -61 -21 -52 -6 4 5 0 12 -6 14 -7 3 6 6
30 6 39 1 42 -1 28 -14z m-2402 -140 c137 -404 446 -672 886 -769 24 -5 25 -7
22 -74 l-4 -70 -41 5 c-60 8 -199 49 -283 84 -196 82 -427 269 -557 450 -65
92 -131 230 -167 350 -42 141 -43 137 33 141 34 2 65 1 68 -2 3 -3 23 -54 43
-115z m2338 99 c-11 -71 -61 -216 -107 -309 -167 -342 -496 -603 -858 -680
-102 -22 -97 -25 -97 55 0 68 1 70 28 76 157 34 306 92 402 157 228 154 379
359 466 628 14 46 28 86 29 89 2 3 34 5 72 4 61 -1 68 -3 65 -20z m-2219 -35
l47 -3 49 -102 c135 -275 371 -463 664 -528 26 -6 27 -9 27 -66 0 -71 2 -71
-119 -34 -328 100 -597 356 -720 684 -24 64 -26 77 -8 62 7 -6 34 -12 60 -13z
m-117 -466 c13 -14 22 -28 20 -31 -3 -2 30 -39 73 -83 76 -77 100 -112 31 -45
-106 104 -170 183 -170 210 0 6 5 3 11 -7 5 -9 21 -29 35 -44z m1201 -67 c1
-1 4 -114 5 -252 l3 -249 -100 -5 c-55 -3 -107 -2 -116 2 -24 11 -39 486 -16
503 12 9 214 10 224 1z m-267 -256 c0 -33 -11 -38 -30 -15 -9 11 -9 17 2 29
20 23 28 19 28 -14z m556 -177 c-3 -4 -12 -8 -19 -9 -7 -1 -34 -9 -60 -18 -51
-17 -75 -21 -63 -8 8 7 111 39 135 41 8 0 11 -2 7 -6z m-212 -32 c3 -4 17 -6
31 -3 34 6 32 -14 -2 -23 -15 -3 -40 -17 -56 -31 -16 -13 -34 -24 -40 -24 -9
0 -9 2 -1 8 7 4 19 24 27 45 15 36 30 46 41 28z m-124 -91 c-8 -5 -40 -9 -70
-9 -50 2 -52 2 -20 9 55 12 108 12 90 0z"/>
<path d="M1383 2807 c4 -10 7 -113 7 -228 l0 -209 98 2 97 2 -92 3 -92 4 6
207 c6 193 5 208 -12 222 -17 14 -18 13 -12 -3z"/>
<path d="M1096 2619 c-135 -46 -167 -61 -265 -124 -133 -86 -316 -282 -371
-399 -11 -22 -15 -33 -8 -22 160 236 304 379 468 461 87 43 200 85 285 106 46
11 60 17 40 18 -16 0 -84 -18 -149 -40z"/>
<path d="M1702 2654 c3 -3 35 -12 69 -20 35 -8 73 -17 84 -20 16 -4 17 -3 5 5
-9 5 -46 17 -83 25 -75 18 -83 19 -75 10z"/>
<path d="M1900 2598 c14 -7 59 -28 101 -49 84 -40 244 -155 300 -215 19 -22
59 -69 89 -106 29 -38 55 -68 57 -68 13 0 -92 136 -148 191 -111 110 -293 225
-399 253 l-25 6 25 -12z"/>
<path d="M2457 2133 c3 -10 9 -22 14 -28 4 -5 26 -44 49 -85 23 -41 38 -64 34
-50 -8 31 -82 168 -95 175 -5 4 -6 -2 -2 -12z"/>
<path d="M2566 1921 c10 -38 33 -88 33 -71 0 8 -8 33 -19 55 -11 22 -17 29
-14 16z"/>
<path d="M1035 2384 c-16 -8 -41 -24 -55 -35 -19 -15 78 31 99 48 12 9 -18 1
-44 -13z"/>
<path d="M1830 2416 c171 -63 351 -215 459 -388 47 -74 68 -94 27 -25 -70 117
-174 235 -274 309 -58 43 -207 118 -231 117 -9 0 0 -6 19 -13z"/>
<path d="M1260 1924 c0 -10 24 -89 35 -116 5 -14 2 -18 -13 -18 -16 0 -26 14
-44 60 -18 47 -28 60 -44 60 -31 0 -152 -44 -206 -75 -108 -61 -82 -68 217
-59 334 9 318 9 500 0 l160 -8 -30 22 c-45 32 -152 84 -225 110 -53 19 -92 24
-207 28 -79 2 -143 0 -143 -4z m245 -39 c97 -17 194 -53 174 -65 -6 -5 -24 -6
-38 -5 -23 3 -166 5 -270 3 -36 0 -51 14 -51 49 0 35 56 40 185 18z m-310 -50
c0 -18 -8 -20 -64 -23 -36 -2 -68 2 -73 7 -4 6 -5 9 -2 7 3 -3 19 3 35 13 16
10 46 18 67 17 30 -1 37 -5 37 -21z"/>
<path d="M1370 1729 c-150 -67 -213 -264 -125 -393 13 -20 20 -38 15 -41 -5
-3 -52 -5 -104 -4 l-94 1 5 38 c13 92 -40 197 -122 245 -93 55 -201 42 -289
-35 -59 -53 -79 -102 -73 -179 4 -55 3 -63 -8 -48 -37 51 -24 178 26 246 65
91 154 127 268 111 151 -21 241 -138 228 -294 l-6 -71 74 0 c41 0 75 0 75 1 0
0 -9 19 -20 42 -11 22 -25 65 -32 94 -11 50 -12 51 -18 23 -4 -18 -1 -44 8
-65 28 -69 28 -70 -14 -70 l-39 0 -1 88 c-1 98 -18 144 -76 201 -53 54 -110
75 -203 74 -132 0 -225 -44 -266 -126 -12 -23 -28 -50 -37 -59 -22 -26 -18
-128 6 -174 6 -11 13 -27 16 -37 5 -16 8 -16 29 -2 23 15 24 14 55 -34 52 -80
159 -121 236 -91 28 10 116 93 134 125 11 20 11 20 28 -4 16 -22 21 -23 116
-19 109 4 120 10 112 63 -5 30 -5 30 9 7 15 -26 7 -116 -13 -136 -6 -6 -10
-69 -10 -158 0 -199 -12 -188 218 -188 147 0 178 3 203 17 l30 18 -4 150 c-1
83 -9 176 -17 208 -13 53 -13 60 4 92 26 48 39 44 30 -11 -9 -59 0 -65 96 -63
85 2 120 12 120 34 0 8 5 15 10 15 6 0 10 -6 10 -13 0 -22 70 -97 110 -117 66
-34 110 -35 167 -7 28 15 62 39 76 56 13 16 28 28 31 25 3 -2 4 -1 1 2 -9 13
16 45 33 42 15 -3 17 7 17 74 -1 70 -4 82 -31 120 -69 98 -192 134 -296 86
-100 -47 -151 -129 -150 -244 l0 -54 -94 0 c-90 0 -105 4 -85 26 5 5 16 33 25
63 45 154 -11 279 -154 345 -70 33 -172 35 -240 5z m174 -43 c69 -21 123 -60
147 -108 39 -77 15 -218 -39 -218 -10 0 -12 6 -7 18 14 34 17 98 6 138 -15 55
-62 100 -126 120 -53 17 -53 17 -109 -10 -87 -43 -122 -119 -96 -211 14 -49
11 -59 -13 -49 -46 17 -48 162 -4 231 30 47 58 69 115 89 48 17 69 17 126 0z
m-10 -101 c63 -30 86 -117 45 -168 -28 -37 -88 -52 -132 -33 -95 39 -102 143
-12 197 37 23 57 24 99 4z m-624 -55 c49 -25 76 -58 89 -107 15 -57 1 -107
-44 -160 -59 -69 -132 -90 -198 -57 -101 51 -143 155 -98 242 24 47 45 66 101
92 50 23 91 20 150 -10z m1337 3 c122 -57 124 -224 5 -308 -76 -52 -170 -33
-236 49 -27 33 -31 45 -31 101 0 55 4 68 30 101 17 20 46 45 65 55 43 24 120
25 167 2z m-845 -168 c13 -30 37 -37 104 -33 45 3 49 5 52 31 7 55 63 18 82
-55 7 -23 10 -57 7 -74 -4 -24 -1 -33 11 -36 15 -4 17 -21 14 -154 l-3 -149
-185 0 -185 0 -2 153 c-2 134 0 152 14 152 13 0 17 15 21 75 4 53 10 81 23 95
24 26 33 25 47 -5z"/>
<path d="M1452 1518 c-16 -16 -15 -53 2 -67 21 -18 82 -10 77 9 -2 8 -4 22 -4
30 0 36 -49 54 -75 28z m57 -17 c9 -6 10 -10 2 -16 -15 -8 -41 1 -41 15 0 12
20 13 39 1z"/>
<path d="M786 1465 c6 -34 5 -35 -25 -35 -31 0 -38 7 -23 26 4 5 -3 -1 -15
-14 -27 -27 -30 -86 -8 -116 14 -18 16 -18 33 -3 26 24 39 21 17 -3 -17 -19
-17 -21 0 -40 13 -14 31 -20 60 -20 55 0 73 19 50 54 -18 28 -6 36 15 11 16
-20 46 -19 54 1 13 33 6 92 -14 116 -25 32 -79 58 -119 58 -31 0 -32 -1 -25
-35z m107 -33 c-16 -11 -19 -10 -24 10 -9 33 0 42 23 22 19 -18 19 -19 1 -32z
m-37 -38 c9 -34 -18 -64 -44 -48 -35 23 -27 74 12 74 19 0 27 -7 32 -26z"/>
<path d="M2125 1458 c6 -36 5 -40 -10 -35 -9 4 -23 7 -32 7 -10 0 -13 6 -9 18
4 12 0 10 -14 -7 -25 -29 -26 -82 -1 -112 16 -20 21 -21 35 -10 18 15 22 1 5
-16 -7 -7 -3 -17 17 -32 31 -24 39 -25 83 -10 34 12 37 20 20 51 -15 28 -3 35
22 12 21 -19 21 -19 40 5 25 30 24 56 -3 99 -23 37 -85 71 -131 72 -28 0 -29
-1 -22 -42z m114 -1 c12 -15 5 -27 -16 -27 -7 0 -13 9 -13 20 0 23 13 26 29 7z
m-43 -63 c9 -34 -18 -64 -44 -48 -22 14 -27 41 -12 59 20 24 49 18 56 -11z"/>
<path d="M1386 1293 c-3 -21 -6 -50 -6 -65 l0 -28 108 0 107 0 -3 52 c-4 63
-16 80 -36 52 -21 -28 -107 -26 -140 5 l-23 22 -7 -38z"/>
<path d="M1445 1099 c-5 -15 -2 -25 8 -30 10 -6 13 -21 10 -51 -5 -53 9 -78
34 -62 13 9 17 22 15 50 -1 22 3 49 9 61 16 29 -3 53 -42 53 -20 0 -30 -6 -34
-21z"/>
<path d="M2069 1691 c-83 -17 -169 -95 -190 -175 -6 -23 -15 -51 -20 -64 -5
-12 -6 -42 -3 -66 6 -41 5 -44 -20 -50 -37 -9 -47 0 -36 29 6 15 6 34 0 47 -9
23 -9 23 -9 2 -1 -12 -8 -38 -16 -57 -8 -20 -15 -38 -15 -41 0 -2 30 -6 68 -8
l67 -3 0 90 c0 74 4 97 23 132 46 87 113 134 208 149 31 4 42 9 33 15 -16 10
-38 10 -90 0z"/>
<path d="M2330 1632 c61 -51 91 -120 100 -225 4 -51 8 -78 9 -62 1 17 4 60 7
97 3 48 0 76 -10 95 -17 34 -82 96 -116 113 -19 9 -16 4 10 -18z"/>
<path d="M2171 849 c-43 -50 -159 -137 -236 -176 -56 -28 -150 -62 -220 -78
-16 -4 -25 -9 -18 -12 32 -12 274 79 317 119 8 7 40 31 70 52 51 36 148 137
129 135 -4 0 -23 -18 -42 -40z"/>
<path d="M2200 799 c-36 -33 -94 -80 -130 -106 -71 -51 -225 -127 -279 -138
-36 -8 -101 -33 -101 -39 0 -2 37 7 83 20 103 30 242 100 327 164 57 42 182
161 170 160 -3 -1 -34 -28 -70 -61z"/>
<path d="M2581 1483 l-1 -83 125 0 125 0 0 55 0 55 -37 -1 -38 -1 33 -11 c29
-9 33 -14 30 -41 l-3 -31 -107 -3 -106 -3 -10 73 -9 73 -2 -82z"/>
<path d="M124 1584 c3 -9 6 -54 6 -100 l0 -84 118 0 117 0 -3 48 c-4 54 -12
65 -36 56 -11 -4 -14 -9 -7 -13 6 -4 14 -21 17 -39 l7 -32 -69 0 c-93 0 -114
7 -114 36 0 21 5 24 43 25 23 1 56 5 72 9 25 6 20 8 -27 9 -89 2 -108 13 -108
61 0 23 -5 40 -11 40 -6 0 -8 -7 -5 -16z"/>
<path d="M314 1273 c2 -10 8 -34 11 -53 15 -81 82 -244 119 -293 14 -19 26
-37 26 -42 0 -15 148 -194 193 -234 144 -124 339 -229 502 -271 84 -22 112
-37 96 -53 -13 -13 -123 9 -170 34 -20 10 -43 19 -51 19 -9 0 -26 7 -38 16
-12 8 -22 12 -22 8 0 -3 -7 0 -16 7 -9 7 -25 15 -37 16 -12 2 -25 9 -29 16 -4
6 -8 8 -8 4 0 -4 -6 -3 -12 2 -56 46 -77 61 -85 61 -6 0 -24 14 -41 30 -18 17
-33 29 -35 28 -10 -10 -206 184 -244 242 -20 30 -47 66 -59 80 -33 36 -109
195 -129 268 -10 34 -20 61 -22 58 -9 -9 42 -156 82 -236 120 -237 350 -462
585 -572 95 -45 239 -94 306 -104 l44 -6 0 46 c0 42 -2 46 -24 46 -36 0 -183
45 -261 80 -86 38 -240 141 -318 210 -64 58 -165 184 -219 275 -39 65 -83 172
-113 273 -10 34 -22 62 -27 62 -5 0 -7 -8 -4 -17z"/>
<path d="M2590 1168 c-89 -249 -241 -454 -435 -589 -44 -31 -100 -66 -123 -78
-58 -30 -195 -79 -251 -91 -98 -21 -91 -16 -91 -65 0 -43 1 -45 25 -40 14 3
37 7 53 10 51 11 194 56 189 61 -2 2 -40 -7 -83 -20 -94 -30 -164 -42 -164
-29 0 23 30 45 80 57 123 31 370 143 370 169 0 4 4 7 9 7 29 0 249 223 287
291 10 18 21 36 24 39 15 15 50 71 50 80 0 6 7 22 16 35 9 14 14 25 11 25 -3
0 5 25 18 55 14 30 27 66 29 80 3 14 8 34 11 45 4 11 4 20 2 20 -2 0 -14 -28
-27 -62z"/>
<path d="M2395 689 c-92 -93 -205 -180 -320 -245 -57 -32 -102 -60 -100 -63 6
-5 132 67 225 130 69 47 278 239 259 239 -2 0 -31 -27 -64 -61z"/>
<path d="M602 1082 c23 -53 79 -140 111 -175 23 -25 51 -56 62 -69 27 -32 119
-108 131 -108 5 0 20 -10 34 -23 14 -12 45 -33 70 -46 58 -31 199 -81 225 -81
12 0 26 -5 33 -12 9 -9 12 -9 12 3 0 10 -22 20 -72 32 -209 49 -457 238 -569
434 -17 29 -33 53 -36 53 -2 0 -3 -3 -1 -8z"/>
<path d="M611 950 c45 -68 205 -223 285 -276 125 -83 331 -167 375 -152 8 3
-22 13 -66 22 -94 21 -259 102 -355 175 -63 48 -161 144 -229 226 -30 36 -31
37 -10 5z"/>
<path d="M1388 473 c1 -120 5 -224 7 -230 5 -16 185 -18 185 -3 0 6 -33 10
-79 10 -65 0 -80 3 -85 17 -4 9 -6 107 -6 217 1 160 -1 202 -12 204 -11 2 -12
-38 -10 -215z"/>
<path d="M1455 670 c28 -12 55 -12 55 0 0 6 -17 10 -37 9 -31 0 -34 -2 -18 -9z"/>
<path d="M1491 518 c-2 -44 -3 -174 -1 -220 1 -28 3 -30 10 -13 11 26 11 178
1 230 l-9 40 -1 -37z"/>
</g>
</svg>
